# xmcd
#
# Track frame offsets:
#	150
#	12721
#	29557
#	44355
#	59745
#	76949
#	91979
#	107604
#	121080
#	137287
#	149660
#
# Disc length: 2195 seconds
#
# Revision: 1
# Processed by: cddbd v1.5.2PL0 Copyright (c) Steve Scherf et al.
# Submitted via: audiograbber 1.83.01
#
DISCID=9608910b
DTITLE=Various Artist - CDX 20
DYEAR=1991
DGENRE=Country
TTITLE0=Randy Travis - Better Class Of Losers
TTITLE1=Great Plains - Faster Gun
TTITLE2=Davis Daniel - Fighting Fire With Fire
TTITLE3=George Fox - Here Today, Here Tomorrow
TTITLE4=John Gorka - Houses In The Fields
TTITLE5=Tim Ryan - I Will Love You Anyhow
TTITLE6=Patty Loveless - Jealous Bone
TTITLE7=Suzy Bogguss - Outbound Plane
TTITLE8=Ricky Skaggs - Same Ol' Love
TTITLE9=Mario Martin - Take It To A Honky Tonk
TTITLE10=The Desert Rose Band - Twilight Is Gone
EXTD=
EXTT0=
EXTT1=
EXTT2=
EXTT3=
EXTT4=
EXTT5=
EXTT6=
EXTT7=
EXTT8=
EXTT9=
EXTT10=
PLAYORDER=
